<?xml version="1.0" encoding="UTF-8"?>
<svg id="_Слой_2" data-name="Слой 2" xmlns="http://www.w3.org/2000/svg" viewBox="0 0 539.4 176.35">
  <defs>
    <style>
      .cls-1 {
        fill: #fa9600;
      }

      .cls-2 {
        fill: gray;
      }
    </style>
  </defs>
  <g id="_Слой_1-2" data-name="Слой 1">
    <g>
      <path class="cls-2" d="M14.02,40.58c9.35-9.35,20.62-14.03,33.83-14.03s24.47,4.68,33.83,14.03c9.35,9.35,14.02,20.62,14.02,33.83,0,2.2-.15,4.35-.45,6.45H22.05c1.4,5.8,4.5,10.6,9.3,14.4,4.8,3.8,10.3,5.7,16.5,5.7s12.1-2.1,17.1-6.3h26.1c-3.9,8.3-9.73,14.98-17.48,20.02-7.75,5.05-16.33,7.58-25.73,7.58-13.2,0-24.48-4.67-33.83-14.03C4.67,98.88,0,87.6,0,74.4s4.67-24.47,14.02-33.83Zm8.93,24.38h49.65c-1.9-5.1-5.1-9.25-9.6-12.45-4.5-3.2-9.55-4.8-15.15-4.8s-10.68,1.6-15.23,4.8c-4.55,3.2-7.78,7.35-9.67,12.45Z"/>
      <path class="cls-2" d="M199.8,74.4c0,13.2-4.68,24.48-14.02,33.82-9.35,9.35-20.62,14.03-33.82,14.03s-24.48-4.67-33.83-14.03c-9.35-9.35-14.02-20.62-14.02-33.82s4.67-24.47,14.02-33.83c9.35-9.35,20.62-14.03,33.83-14.03,9.6,0,18.45,2.7,26.55,8.1V0h21.3V74.4Zm-66.6,18.75c5.2,5.2,11.45,7.8,18.75,7.8s13.55-2.6,18.75-7.8c5.2-5.2,7.8-11.45,7.8-18.75s-2.6-13.55-7.8-18.75c-5.2-5.2-11.45-7.8-18.75-7.8s-13.55,2.6-18.75,7.8c-5.2,5.2-7.8,11.45-7.8,18.75s2.6,13.55,7.8,18.75Z"/>
      <path class="cls-1" d="M269.85,112.5c-6.8,6.5-14.8,9.75-24,9.75s-17.62-3.4-24.38-10.2c-6.75-6.8-10.13-14.95-10.13-24.45V26.55h21.3v61.05c0,3.7,1.28,6.85,3.83,9.45,2.55,2.6,5.67,3.9,9.38,3.9s6.85-1.3,9.45-3.9c2.6-2.6,3.9-5.75,3.9-9.45V26.55h21.3v61.05c0,3.7,1.27,6.85,3.83,9.45,2.55,2.6,5.67,3.9,9.38,3.9s6.85-1.3,9.45-3.9c2.6-2.6,3.9-5.75,3.9-9.45V26.55h21.3v61.2c0,9.5-3.4,17.62-10.2,24.38-6.8,6.75-14.95,10.12-24.45,10.12s-17.15-3.25-23.85-9.75Z"/>
      <path class="cls-1" d="M351.53,40.58c9.35-9.35,20.62-14.03,33.82-14.03s24.47,4.68,33.83,14.03c9.35,9.35,14.02,20.62,14.02,33.83,0,2.2-.15,4.35-.45,6.45h-73.2c1.4,5.8,4.5,10.6,9.3,14.4,4.8,3.8,10.3,5.7,16.5,5.7s12.1-2.1,17.1-6.3h26.1c-3.9,8.3-9.73,14.98-17.48,20.02-7.75,5.05-16.33,7.58-25.73,7.58-13.2,0-24.47-4.67-33.82-14.03-9.35-9.35-14.03-20.62-14.03-33.82s4.67-24.47,14.03-33.83Zm8.92,24.38h49.65c-1.9-5.1-5.1-9.25-9.6-12.45-4.5-3.2-9.55-4.8-15.15-4.8s-10.68,1.6-15.22,4.8c-4.55,3.2-7.78,7.35-9.67,12.45Z"/>
      <path class="cls-1" d="M443.7,74.4V0h21.3V34.65c7.9-5.4,16.75-8.1,26.55-8.1,13.2,0,24.47,4.68,33.83,14.03,9.35,9.35,14.02,20.62,14.02,33.83s-4.68,24.48-14.02,33.82-20.62,14.03-33.83,14.03-24.47-4.67-33.82-14.03c-9.35-9.35-14.03-20.62-14.03-33.82Zm29.03,18.75c5.15,5.2,11.42,7.8,18.82,7.8s13.67-2.6,18.83-7.8c5.15-5.2,7.72-11.45,7.72-18.75s-2.58-13.55-7.72-18.75c-5.15-5.2-11.43-7.8-18.83-7.8s-13.68,2.6-18.82,7.8c-5.15,5.2-7.72,11.45-7.72,18.75s2.57,13.55,7.72,18.75Z"/>
    </g>
    <g>
      <path class="cls-1" d="M8.92,146.46c2.34-2.34,5.17-3.51,8.47-3.51s6.13,1.17,8.47,3.51c2.34,2.34,3.51,5.17,3.51,8.47,0,.55-.04,1.09-.11,1.62H10.93c.35,1.45,1.13,2.66,2.33,3.61,1.2,.95,2.58,1.43,4.13,1.43s3.03-.53,4.28-1.58h6.54c-.98,2.08-2.44,3.75-4.38,5.01-1.94,1.27-4.09,1.9-6.44,1.9-3.31,0-6.13-1.17-8.47-3.51-2.34-2.34-3.51-5.17-3.51-8.47s1.17-6.13,3.51-8.47Zm2.24,6.11h12.44c-.48-1.28-1.28-2.32-2.4-3.12-1.13-.8-2.39-1.2-3.79-1.2s-2.67,.4-3.81,1.2-1.95,1.84-2.42,3.12Z"/>
      <path class="cls-2" d="M29.33,148.28v-3.98h2.63c0-2.2,.78-4.09,2.35-5.65,1.56-1.57,3.45-2.35,5.65-2.35h1.31v5.33h-1.31c-.73,0-1.35,.26-1.88,.79-.53,.53-.79,1.15-.79,1.88h2.67v3.98h-2.67v18.63h-5.33v-18.63h-2.63Z"/>
      <path class="cls-2" d="M43.27,148.28v-3.98h2.63c0-2.2,.78-4.09,2.35-5.65,1.56-1.57,3.45-2.35,5.65-2.35h1.31v5.33h-1.31c-.73,0-1.35,.26-1.88,.79-.53,.53-.79,1.15-.79,1.88h2.67v3.98h-2.67v18.63h-5.33v-18.63h-2.63Z"/>
      <path class="cls-2" d="M58.26,137.09c.53-.53,1.15-.79,1.88-.79s1.35,.26,1.88,.79c.53,.53,.79,1.15,.79,1.88s-.26,1.35-.79,1.88c-.53,.53-1.15,.79-1.88,.79s-1.35-.26-1.88-.79c-.53-.53-.79-1.15-.79-1.88s.26-1.35,.79-1.88Zm4.55,5.86v23.97h-5.33v-23.97h5.33Z"/>
      <path class="cls-2" d="M77.53,166.92c-3.31,0-6.13-1.17-8.47-3.51-2.34-2.34-3.51-5.17-3.51-8.47s1.17-6.13,3.51-8.47c2.34-2.34,5.17-3.51,8.47-3.51,2.38,0,4.55,.65,6.52,1.94s3.42,2.99,4.38,5.09h-6.46c-1.28-1.15-2.76-1.73-4.43-1.73-1.83,0-3.39,.65-4.7,1.95s-1.95,2.88-1.95,4.73,.65,3.39,1.95,4.7c1.3,1.3,2.87,1.95,4.7,1.95,2,0,3.68-.76,5.03-2.29h6.12c-.9,2.28-2.36,4.12-4.38,5.52-2.02,1.4-4.28,2.1-6.78,2.1Z"/>
      <path class="cls-2" d="M92.07,137.09c.53-.53,1.15-.79,1.88-.79s1.35,.26,1.88,.79c.53,.53,.79,1.15,.79,1.88s-.26,1.35-.79,1.88c-.53,.53-1.15,.79-1.88,.79s-1.35-.26-1.88-.79c-.53-.53-.79-1.15-.79-1.88s.26-1.35,.79-1.88Zm4.55,5.86v23.97h-5.33v-23.97h5.33Z"/>
      <path class="cls-2" d="M102.68,146.46c2.34-2.34,5.17-3.51,8.47-3.51s6.13,1.17,8.47,3.51c2.34,2.34,3.51,5.17,3.51,8.47,0,.55-.04,1.09-.11,1.62h-18.33c.35,1.45,1.13,2.66,2.33,3.61,1.2,.95,2.58,1.43,4.13,1.43s3.03-.53,4.28-1.58h6.54c-.98,2.08-2.44,3.75-4.38,5.01-1.94,1.27-4.09,1.9-6.44,1.9-3.31,0-6.13-1.17-8.47-3.51-2.34-2.34-3.51-5.17-3.51-8.47s1.17-6.13,3.51-8.47Zm2.24,6.11h12.44c-.48-1.28-1.28-2.32-2.4-3.12-1.13-.8-2.39-1.2-3.79-1.2s-2.67,.4-3.81,1.2-1.95,1.84-2.42,3.12Z"/>
      <path class="cls-2" d="M146.62,153.58v13.34h-5.33v-13.34c0-1.48-.52-2.74-1.56-3.78-1.04-1.04-2.3-1.56-3.78-1.56s-2.7,.52-3.74,1.56c-1.04,1.04-1.56,2.3-1.56,3.78v13.34h-5.33v-13.34c0-2.93,1.04-5.43,3.12-7.51,2.08-2.08,4.58-3.12,7.51-3.12s5.47,1.04,7.55,3.12c2.08,2.08,3.12,4.58,3.12,7.51Z"/>
      <path class="cls-2" d="M156.2,136.3v6.39h2.4v3.98h-2.4v12.25c0,.75,.26,1.38,.77,1.9,.51,.51,1.13,.77,1.86,.77h1.35v5.33h-1.35c-2.2,0-4.08-.78-5.64-2.35-1.55-1.57-2.33-3.45-2.33-5.65v-12.25h-2.4v-3.98h2.4v-6.39h5.33Z"/>
      <path class="cls-1" d="M199.78,154.93c0,3.31-1.17,6.13-3.51,8.47s-5.17,3.51-8.47,3.51-6.13-1.17-8.47-3.51c-2.34-2.34-3.51-5.17-3.51-8.47s1.17-6.13,3.51-8.47c2.34-2.34,5.17-3.51,8.47-3.51,2.4,0,4.62,.68,6.65,2.03v-8.68h5.33v18.63Zm-16.68,4.7c1.3,1.3,2.87,1.95,4.7,1.95s3.39-.65,4.7-1.95,1.95-2.87,1.95-4.7-.65-3.39-1.95-4.7c-1.3-1.3-2.87-1.95-4.7-1.95s-3.39,.65-4.7,1.95c-1.3,1.3-1.95,2.87-1.95,4.7s.65,3.39,1.95,4.7Z"/>
      <path class="cls-2" d="M205.43,146.46c2.34-2.34,5.17-3.51,8.47-3.51s6.13,1.17,8.47,3.51c2.34,2.34,3.51,5.17,3.51,8.47,0,.55-.04,1.09-.11,1.62h-18.33c.35,1.45,1.13,2.66,2.33,3.61,1.2,.95,2.58,1.43,4.13,1.43s3.03-.53,4.28-1.58h6.54c-.98,2.08-2.44,3.75-4.38,5.01-1.94,1.27-4.09,1.9-6.44,1.9-3.31,0-6.13-1.17-8.47-3.51-2.34-2.34-3.51-5.17-3.51-8.47s1.17-6.13,3.51-8.47Zm2.24,6.11h12.44c-.48-1.28-1.28-2.32-2.4-3.12-1.13-.8-2.39-1.2-3.79-1.2s-2.67,.4-3.81,1.2-1.95,1.84-2.42,3.12Z"/>
      <path class="cls-2" d="M241.14,142.95h5.79l-10.63,23.97-10.67-23.97h5.79l4.88,10.93,4.85-10.93Z"/>
      <path class="cls-2" d="M250.21,146.46c2.34-2.34,5.17-3.51,8.47-3.51s6.13,1.17,8.47,3.51c2.34,2.34,3.51,5.17,3.51,8.47,0,.55-.04,1.09-.11,1.62h-18.33c.35,1.45,1.13,2.66,2.33,3.61,1.2,.95,2.58,1.43,4.13,1.43s3.03-.53,4.28-1.58h6.54c-.98,2.08-2.44,3.75-4.38,5.01-1.94,1.27-4.09,1.9-6.44,1.9-3.31,0-6.13-1.17-8.47-3.51s-3.51-5.17-3.51-8.47,1.17-6.13,3.51-8.47Zm2.24,6.11h12.44c-.48-1.28-1.28-2.32-2.4-3.12-1.13-.8-2.39-1.2-3.79-1.2s-2.67,.4-3.81,1.2-1.95,1.84-2.42,3.12Z"/>
      <path class="cls-2" d="M273.26,154.93v-18.63h5.3v18.63c0,1.83,.65,3.39,1.95,4.7,1.3,1.3,2.87,1.95,4.7,1.95v5.33c-3.31,0-6.12-1.17-8.45-3.51-2.33-2.34-3.49-5.17-3.49-8.47Z"/>
      <path class="cls-2" d="M306.53,163.41c-2.34,2.34-5.17,3.51-8.47,3.51s-6.13-1.17-8.47-3.51-3.51-5.17-3.51-8.47,1.17-6.13,3.51-8.47c2.34-2.34,5.17-3.51,8.47-3.51s6.13,1.17,8.47,3.51c2.34,2.34,3.51,5.17,3.51,8.47s-1.17,6.13-3.51,8.47Zm-13.17-3.78c1.3,1.3,2.87,1.95,4.7,1.95s3.39-.65,4.7-1.95,1.95-2.87,1.95-4.7-.65-3.43-1.95-4.73c-1.3-1.3-2.87-1.95-4.7-1.95s-3.39,.65-4.7,1.95-1.95,2.88-1.95,4.73,.65,3.39,1.95,4.7Z"/>
      <path class="cls-2" d="M311.81,154.93c0-3.31,1.17-6.13,3.51-8.47,2.34-2.34,5.17-3.51,8.47-3.51s6.13,1.17,8.47,3.51c2.34,2.34,3.51,5.17,3.51,8.47s-1.17,6.13-3.51,8.47-5.17,3.51-8.47,3.51c-2.45,0-4.67-.68-6.65-2.03v11.46h-5.33v-21.41Zm16.7-4.7c-1.29-1.3-2.86-1.95-4.71-1.95s-3.42,.65-4.71,1.95c-1.29,1.3-1.93,2.87-1.93,4.7s.64,3.39,1.93,4.7c1.29,1.3,2.86,1.95,4.71,1.95s3.42-.65,4.71-1.95c1.29-1.3,1.93-2.87,1.93-4.7s-.64-3.39-1.93-4.7Z"/>
      <path class="cls-2" d="M353.13,145.35c1.65-1.6,3.64-2.4,5.97-2.4s4.45,.85,6.14,2.54c1.69,1.69,2.54,3.73,2.54,6.1v15.33h-5.33v-15.33c0-.93-.33-1.71-.98-2.37s-1.44-.98-2.37-.98-1.68,.33-2.33,.98c-.65,.65-.98,1.44-.98,2.37v15.33h-5.33v-15.33c0-.93-.33-1.71-.98-2.37-.65-.65-1.44-.98-2.37-.98s-1.68,.33-2.33,.98c-.65,.65-.98,1.44-.98,2.37v15.33h-5.33v-15.33c0-2.38,.84-4.41,2.54-6.1,1.69-1.69,3.72-2.54,6.1-2.54s4.36,.8,6.01,2.4Z"/>
      <path class="cls-2" d="M373.47,146.46c2.34-2.34,5.17-3.51,8.47-3.51s6.13,1.17,8.47,3.51c2.34,2.34,3.51,5.17,3.51,8.47,0,.55-.04,1.09-.11,1.62h-18.33c.35,1.45,1.13,2.66,2.33,3.61,1.2,.95,2.58,1.43,4.13,1.43s3.03-.53,4.28-1.58h6.54c-.98,2.08-2.44,3.75-4.38,5.01-1.94,1.27-4.09,1.9-6.44,1.9-3.31,0-6.13-1.17-8.47-3.51s-3.51-5.17-3.51-8.47,1.17-6.13,3.51-8.47Zm2.24,6.11h12.44c-.48-1.28-1.28-2.32-2.4-3.12s-2.39-1.2-3.79-1.2-2.67,.4-3.81,1.2c-1.14,.8-1.95,1.84-2.42,3.12Z"/>
      <path class="cls-2" d="M417.41,153.58v13.34h-5.33v-13.34c0-1.48-.52-2.74-1.56-3.78-1.04-1.04-2.3-1.56-3.78-1.56s-2.7,.52-3.74,1.56-1.56,2.3-1.56,3.78v13.34h-5.33v-13.34c0-2.93,1.04-5.43,3.12-7.51,2.08-2.08,4.58-3.12,7.51-3.12s5.47,1.04,7.55,3.12c2.08,2.08,3.12,4.58,3.12,7.51Z"/>
      <path class="cls-2" d="M426.99,136.3v6.39h2.4v3.98h-2.4v12.25c0,.75,.26,1.38,.77,1.9,.51,.51,1.13,.77,1.86,.77h1.35v5.33h-1.35c-2.2,0-4.08-.78-5.63-2.35-1.55-1.57-2.33-3.45-2.33-5.65v-12.25h-2.4v-3.98h2.4v-6.39h5.33Z"/>
    </g>
  </g>
</svg>