<?xml version="1.0" encoding="UTF-8"?>
<svg id="_Слой_2" data-name="Слой 2" xmlns="http://www.w3.org/2000/svg" viewBox="0 0 512 512">
  <defs>
    <style>
      .cls-1 {
        fill: #565656;
      }

      .cls-2 {
        fill: #0284c7;
      }

      .cls-3 {
        fill: none;
      }
    </style>
  </defs>
  <g id="_Слой_1-2" data-name="Слой 1">
    <g>
      <rect class="cls-3" width="512" height="512"/>
      <g>
        <path class="cls-1" d="M175.81,356.32c0,6.14-.14,10.95-.41,14.43-.28,3.48-.71,5.97-1.31,7.47-.6,1.49-1.33,2.16-2.2,1.99-.87-.16-2-.83-3.38-1.99l-105.67-95.06c-1.29-1.33-2.23-4.11-2.82-8.34-.6-4.23-.9-10.58-.9-19.04,0-4.31,.09-8.09,.28-11.32,.18-3.23,.41-5.89,.69-7.96,.28-2.07,.67-3.73,1.17-4.98,.5-1.24,1.08-2.2,1.72-2.86l105.53-94.56c2.66-2.32,4.55-1.87,5.65,1.37,1.1,3.23,1.65,9.83,1.65,19.78,0,6.8-.07,12.19-.21,16.17-.14,3.98-.39,7.13-.76,9.46-.37,2.33-.87,3.98-1.52,4.98-.64,1-1.52,1.99-2.62,2.99l-79.36,67.19,77.84,65.19c1.38,1.16,2.5,2.33,3.38,3.48,.87,1.16,1.54,2.95,2,5.35,.46,2.41,.78,5.64,.96,9.71,.18,4.07,.28,9.58,.28,16.55Z"/>
        <path class="cls-2" d="M223.28,417.59c-.52,1.64-1.2,2.97-2.04,3.99-.84,1.01-2.01,1.83-3.53,2.47-1.52,.63-3.4,1.11-5.64,1.42-2.25,.31-5.1,.48-8.54,.48-4.29,0-7.79-.26-10.5-.76-2.72-.51-4.78-1.27-6.19-2.28-1.41-1.01-2.22-2.31-2.43-3.89-.21-1.58,0-3.45,.63-5.6L278.78,94.55c.42-1.64,1.04-3.01,1.88-4.08,.84-1.07,1.98-1.93,3.45-2.56,1.46-.63,3.37-1.11,5.72-1.42,2.35-.31,5.2-.47,8.54-.47,4.39,0,7.92,.26,10.58,.76,2.67,.51,4.68,1.27,6.04,2.28,1.36,1.01,2.14,2.31,2.35,3.89,.21,1.58,.05,3.45-.47,5.6l-93.6,319.06Z"/>
        <path class="cls-1" d="M442.39,256.54c0,4.32-.09,8.05-.28,11.2-.19,3.15-.44,5.81-.76,7.96-.32,2.16-.74,3.86-1.24,5.1-.51,1.24-1.08,2.11-1.72,2.61l-105.67,94.56c-1.29,1.16-2.39,1.66-3.31,1.49-.92-.16-1.68-1.08-2.27-2.74-.6-1.66-1.01-4.11-1.24-7.34-.23-3.24-.34-7.34-.34-12.32,0-6.8,.07-12.19,.21-16.17,.14-3.98,.39-7.13,.76-9.46,.37-2.32,.87-4.02,1.52-5.1,.64-1.08,1.52-2.03,2.62-2.86l79.36-67.19-77.84-65.2c-1.47-1.16-2.64-2.32-3.51-3.48-.87-1.16-1.54-2.94-2-5.35-.46-2.4-.76-5.64-.9-9.7-.14-4.06-.21-9.58-.21-16.55,0-6.14,.11-10.95,.34-14.43,.23-3.48,.64-5.97,1.24-7.46,.6-1.49,1.35-2.15,2.27-1.99,.92,.17,2.02,.83,3.31,1.99l105.81,95.3c1.19,1,2.14,3.65,2.82,7.96,.69,4.32,1.03,10.7,1.03,19.16Z"/>
      </g>
    </g>
  </g>
</svg>