<?xml version="1.0" encoding="UTF-8"?>
<svg id="_Слой_2" data-name="Слой 2" xmlns="http://www.w3.org/2000/svg" viewBox="0 0 621.69 662.66">
  <defs>
    <style>
      .cls-1 {
        fill: #ffe05f;
      }

      .cls-2 {
        fill: #2f9ec9;
      }
    </style>
  </defs>
  <g id="_Слой_1-2" data-name="Слой 1">
    <g>
      <path class="cls-2" d="M384.66,.66c-6.9,2.2-13.8,9.2-17.9,18-3.9,8.5-4.7,10.9-6.2,20.5-1.3,7.5-2.6,14.5-6,31-.8,3.8-1.8,9-2.1,11.5s-1.4,9.4-2.5,15.5c-1.1,6-2.9,16.6-4,23.5-1.9,11.4-3.9,22.5-7,38.5-.6,3.3-1.8,10.3-2.5,15.5-.8,5.2-2.3,14-3.3,19.5-1.1,5.5-2.7,14-3.7,19-2.1,11.2-5.3,26.7-6.6,32-.6,2.2-1.6,7.2-2.4,11.2s-1.8,8-2.3,9-1.3,3.8-1.7,6.3c-.8,5.1-4.8,11.6-7.7,12.6-3.1,.9-8.3-.4-10.4-2.7-5.5-6-7.7-35.2-5-64.6,1-10,2.1-23.9,2.6-31,.4-7,1.5-18.7,2.4-25.8,3.1-27.1,4.7-43.5,5.6-59,.5-8.8,1.4-21,2-27,1.6-16,.8-45.8-1.4-51.5-3.6-9.6-11.2-14.4-22.7-14.3-10,0-15.7,2.6-22.9,10.2-7.5,8-9.6,14.1-13.4,40.1-1,6.3-2.4,15.8-3.3,21-.8,5.2-1.8,13.1-2.3,17.5-.4,4.4-1.4,12-2.3,17-2.3,13.4-3.8,23.7-5.2,36-1.8,15-4.3,33.2-6.1,43.7-.8,4.8-1.9,11.8-2.3,15.5-.5,3.8-1.5,11.3-2.4,16.8-.8,5.5-2.5,17-3.6,25.5-1.2,8.5-2.5,18.6-3.1,22.5-.5,3.8-1.5,10.4-2.1,14.5s-1.7,11.3-2.4,16c-.8,4.7-1.7,12.3-2.1,17s-1.5,12.7-2.5,17.9c-1.1,5.1-1.9,11-1.9,13.1,0,5.2-3.8,21.6-6,26-2.2,4.3-3.9,5.9-10.8,9.9-4.8,2.8-6,3.1-14.1,3.1-9.2,0-11.1-.5-22.9-6.2-6.2-3-10.4-7.1-14.9-14.8-2.6-4.4-13.7-26.5-19.3-38.5-10.1-21.7-14.7-30.1-23.2-42-2.7-3.6-4.8-6.8-4.8-7.2,0-1-15.6-17.3-22-22.8-5.1-4.5-14.9-10.7-18.9-12.1-2-.7-4.9-1.9-6.6-2.8-4.4-2.3-22.1-2.2-25.5,.1-1.4,1-3.8,2.5-5.4,3.3s-4.5,3.7-6.4,6.5c-3.3,4.8-3.4,5.3-3,12.5,.3,4.1,1.1,9.1,2,11,.8,1.9,2.5,6.9,3.8,11,7.9,25.3,30.3,73.7,48.7,105.5,3.8,6.6,7.8,13.5,8.9,15.3,1,1.8,5.1,8.1,9,14,3.8,5.9,7.3,11.4,7.7,12.2s2,3.1,3.5,5.1c1.5,2.1,6.4,8.9,10.9,15.2,4.6,6.4,9.5,12.9,11,14.5,1.6,1.6,5,6,7.6,9.8s7.7,10.7,11.2,15.4,8.3,11.6,10.7,15.4,5,8,5.9,9.5c2,3.1,9.3,17.6,14.2,28.1,14.8,31.9,20.3,41.2,33.2,56,4.6,5.2,9.2,10.2,10.2,11s4.3,3.6,7.3,6.1c16.8,14.1,48,28,73,32.4,4.7,.8,10.1,2,12,2.5,5.9,1.8,36.8,5,48.6,5,24.2,0,40.9-9.5,50.3-28.8,3.5-7.1,15.4-28.5,18.4-33,.9-1.5,2.4-4.1,3.2-5.7,.9-1.7,2.8-4.9,4.3-7.2,2.4-3.7,9.3-14.8,14.7-23.7,1.1-1.8,3.6-5.7,5.5-8.6,7.3-11.3,10-15.7,13-21.5,1.8-3.2,4-7,5.1-8.3,1-1.4,1.9-2.9,1.9-3.3,0-.5,1.5-3.1,3.3-5.7s5.9-9.1,9.2-14.6c3.3-5.4,6.8-11,7.7-12.5,.9-1.4,3.5-5.8,5.8-9.6,2.2-3.9,7.6-12.6,11.9-19.5,9.1-14.5,22-35.4,27.3-44.3,2-3.4,4-6.7,4.5-7.2,.5-.6,2.2-3.3,3.8-6,1.6-2.8,4.3-7.1,6.1-9.6,1.7-2.5,3.9-5.9,4.8-7.5,6.2-10.9,14.8-24.8,16.7-26.9,1-1.1,2.3-3.1,2.9-4.5s2.3-4.4,3.8-6.8c2.2-3.4,29.9-49,34.5-56.7,.6-1.1,3-4.9,5.2-8.5,6.4-10.2,8.1-13.5,13.8-26,3.6-7.8,5.4-19.7,3.9-24.9-2.6-8.4-11.9-15.1-21.3-15.1-4.9,0-15.2,3.1-17.8,5.4-.9,.7-2.6,1.7-3.7,2-3.8,1.2-19.5,18.4-28.4,31.1-1.4,2-4.8,6.6-7.5,10.3-2.8,3.7-5.8,8-6.8,9.5-1,1.6-2.6,3.6-3.5,4.5-1,1-2.6,3.2-3.7,4.9-2.2,3.6-21.1,29.5-31.2,42.8-2.1,2.7-5.2,7-6.8,9.5-5,7.5-13.5,18.2-19.9,24.7-5.9,6.2-6.1,6.3-11.4,6.3-4.4,0-6-.5-8.6-2.6-4.9-4.1-6.6-7.4-6.6-12.6,0-4.4,3.5-17.1,5.9-21.4,2-3.7,8.9-19,9.6-21.4,.4-1.4,1.6-4.1,2.6-6,1.1-1.9,1.9-4.1,1.9-4.9s.6-2.2,1.3-3c1.4-1.7,5.1-10.9,8.9-22.6,1.3-3.9,2.8-7.7,3.3-8.5,1.1-1.8,4-9.6,6.1-16.5,.9-2.8,2.2-6.4,3-8.2,.8-1.7,1.4-3.9,1.4-4.8s.6-2.9,1.4-4.3c.8-1.5,2.6-6.8,4.1-11.7,1.4-5,3.1-10.4,3.7-12,.6-1.7,1.6-5.5,2.3-8.5s2-7.1,2.8-9,1.8-5.6,2.1-8.2c.4-2.6,1.1-5,1.6-5.3s1.2-2.7,1.5-5.3c.4-2.6,1.3-7,2-9.7,2.3-8.4,4.6-18.6,6-26,.7-3.9,1.8-9.4,2.5-12.4,2-8.6-.2-20.9-5.1-28.8-4.4-7-14-12.3-22.6-12.3-4.7,0-10.4,2-12.9,4.5-.9,.8-2.1,1.5-2.8,1.5-2.4,0-12,14.6-15.1,23.1-3,8.2-9.6,27.4-11.5,33.4-1,3.3-2.3,7.3-2.9,9-2.4,6.5-11.3,33.2-12,36-.4,1.6-1.8,6.1-3.1,10-5.1,15.6-10.2,31.4-12.2,38-1.1,3.8-2.7,8.3-3.4,10-1.3,2.9-7.1,19.4-10,28.7-.8,2.6-1.9,5-2.4,5.3-.6,.3-1,1.6-1,2.8s-2,6.7-4.5,12.1c-2.5,5.5-4.5,10.4-4.5,11-.1,.6-1.6,2.8-3.4,5-4,4.6-6.4,4.3-9.7-1.1-3.1-5-3.6-15.3-1.4-28.5,.9-5.6,2.1-13.7,2.5-17.8,.8-7.9,3.1-20.3,5.6-30.6,.8-3.3,1.9-8.5,2.4-11.5,2.2-14,5.1-28.7,6.1-31.1,.6-1.5,1.5-5.3,1.9-8.5,.8-5.3,1.7-9.4,5.2-23.3,.6-2.5,1.7-7.4,2.3-11,.7-3.6,2-9.2,2.9-12.5,.9-3.2,1.6-7.4,1.6-9.2,0-1.9,.6-4.9,1.4-6.7,.7-1.8,1.7-5.7,2.1-8.7s1.3-7.7,2-10.4c.7-2.8,2.5-11.5,3.8-19.5,1.4-8,3.1-17.9,3.9-22,.7-4.1,1.3-13.6,1.3-21,0-12.9-.1-13.8-2.9-19.4-5.9-12.1-14.5-18.5-25.6-19.2-3.6-.2-7.8,.1-9.3,.6Z"/>
      <path class="cls-1" d="M410.57,454.87c-5.88,23.86-27.3,48.31-69.77,79.43-20.82,15.26-35.28,23.64-47.67,27.65-13.42,4.38-18.39,3.47-25.28-4.64-9.41-11.34-17.28-31.66-24.91-64.45-6.79-29.05-8.66-45.41-6.79-60.49,3.54-28.58,17.55-48.21,39.63-55.35,7.56-2.49,8.65-2.56,16.07-1.34,6.16,.96,9.25,2.15,13.99,4.96,7.54,4.66,14.7,13.21,18,21.48,3.33,8.07,6.32,20.63,6.43,27.6,.29,6.38,1.68,7.36,4.46,3.27,3.98-5.96,17.95-17.43,25.06-20.68,8.38-3.9,11.77-4.19,23.95-2.07,23.07,4.17,32.85,20.39,26.82,44.63Z"/>
    </g>
  </g>
</svg>