<?xml version="1.0" encoding="UTF-8"?>
<svg xmlns="http://www.w3.org/2000/svg" xmlns:xlink="http://www.w3.org/1999/xlink" viewBox="0 0 1919.7 1919.97">
  <defs>
    <style>
      .cls-1 {
        fill: url(#linear-gradient-6);
      }

      .cls-2 {
        isolation: isolate;
      }

      .cls-3 {
        fill: url(#linear-gradient-8);
        opacity: .6;
      }

      .cls-3, .cls-4, .cls-5, .cls-6 {
        mix-blend-mode: screen;
      }

      .cls-4 {
        fill: url(#linear-gradient-2);
      }

      .cls-4, .cls-5 {
        opacity: .5;
      }

      .cls-7 {
        fill: url(#linear-gradient-10);
      }

      .cls-5 {
        fill: url(#linear-gradient-3);
      }

      .cls-8 {
        fill: url(#linear-gradient-5);
      }

      .cls-9 {
        clip-path: url(#clippath);
      }

      .cls-10 {
        fill: url(#linear-gradient-9);
      }

      .cls-11 {
        fill: url(#linear-gradient);
      }

      .cls-6 {
        fill: url(#linear-gradient-7);
      }

      .cls-12 {
        fill: url(#linear-gradient-4);
      }
    </style>
    <linearGradient id="linear-gradient" x1="1253.19" y1="1962.53" x2="565.86" y2="-386.55" gradientUnits="userSpaceOnUse">
      <stop offset="0" stop-color="#262626"/>
      <stop offset=".21" stop-color="#1b1b1b"/>
      <stop offset=".68" stop-color="#070707"/>
      <stop offset="1" stop-color="#000"/>
    </linearGradient>
    <clipPath id="clippath">
      <rect class="cls-11" width="1919.7" height="1919.97"/>
    </clipPath>
    <linearGradient id="linear-gradient-2" x1="372.15" y1="1207" x2="932.6" y2="2396.07" gradientUnits="userSpaceOnUse">
      <stop offset="0" stop-color="#000"/>
      <stop offset=".21" stop-color="#161616"/>
      <stop offset=".48" stop-color="#2a2a2a"/>
      <stop offset=".74" stop-color="#363636"/>
      <stop offset="1" stop-color="#3b3b3b"/>
    </linearGradient>
    <linearGradient id="linear-gradient-3" x1="-8394.68" y1="-2807.88" x2="-8009.11" y2="-1989.85" gradientTransform="translate(-8007.5 -2280.45) rotate(-180)" xlink:href="#linear-gradient-2"/>
    <linearGradient id="linear-gradient-4" x1="74.16" y1="302.19" x2="74.16" y2="1731.87" gradientTransform="translate(0 249.85)" gradientUnits="userSpaceOnUse">
      <stop offset="0" stop-color="#f8a500"/>
      <stop offset=".19" stop-color="#f89e00"/>
      <stop offset=".46" stop-color="#fa8c00"/>
      <stop offset=".77" stop-color="#fc6f00"/>
      <stop offset="1" stop-color="#f50"/>
    </linearGradient>
    <linearGradient id="linear-gradient-5" x1="789.1" y1="600.43" x2="789.1" y2="-778.29" xlink:href="#linear-gradient-4"/>
    <linearGradient id="linear-gradient-6" x1="382.81" y1="1914.29" x2="382.81" y2="187.07" gradientTransform="translate(0 249.85)" xlink:href="#linear-gradient-2"/>
    <linearGradient id="linear-gradient-7" x1="414.39" y1="638.72" x2="414.39" y2="-454.61" gradientTransform="translate(0 249.85)" gradientUnits="userSpaceOnUse">
      <stop offset="0" stop-color="#000"/>
      <stop offset=".34" stop-color="#151515"/>
      <stop offset="1" stop-color="#3b3b3b"/>
    </linearGradient>
    <linearGradient id="linear-gradient-8" x1="-151.82" y1="-2220.69" x2="-151.82" y2="-3314.01" gradientTransform="translate(149.34 -1205.05) rotate(-180)" xlink:href="#linear-gradient-7"/>
    <linearGradient id="linear-gradient-9" x1="1956.53" y1="942.06" x2="1956.53" y2="1682.76" gradientTransform="matrix(1, 0, 0, 1, 0, 0)" xlink:href="#linear-gradient-4"/>
    <linearGradient id="linear-gradient-10" x1="1767.03" y1="2151.49" x2="1767.03" y2="424.27" gradientTransform="translate(0 249.85)" xlink:href="#linear-gradient-2"/>
  </defs>
  <g class="cls-2">
    <g id="_Слой_1" data-name="Слой 1">
      <g>
        <rect class="cls-11" width="1919.7" height="1919.97"/>
        <g class="cls-9">
          <polygon class="cls-4" points="528.58 2126.15 917.5 783.93 449.53 783.93 60.62 2126.15 528.58 2126.15"/>
          <polygon class="cls-5" points="279.56 -104.91 12 818.48 333.94 818.48 601.5 -104.91 279.56 -104.91"/>
          <polygon class="cls-12" points="-79.07 1650.29 -108.93 1650.29 227.4 489.58 257.25 489.58 -79.07 1650.29"/>
          <polygon class="cls-8" points="635.87 870.43 606.02 870.43 942.34 -290.28 972.19 -290.28 635.87 870.43"/>
          <polygon class="cls-1" points="165.9 2091.6 -113.56 2091.6 599.72 -370.06 879.18 -370.06 165.9 2091.6"/>
          <polygon class="cls-6" points="300.35 924.13 153.43 924.13 528.43 -370.06 675.35 -370.06 300.35 924.13"/>
          <polygon class="cls-3" points="415.19 980.07 562.11 980.07 187.11 2274.27 40.19 2274.27 415.19 980.07"/>
          <polygon class="cls-10" points="1985.93 1956 2275.29 984.93 1927.12 984.93 1637.77 1956 1985.93 1956"/>
          <polygon class="cls-7" points="1550.12 2328.8 1270.66 2328.8 1983.95 -132.86 2263.4 -132.86 1550.12 2328.8"/>
        </g>
      </g>
    </g>
  </g>
</svg>