<?xml version="1.0" encoding="UTF-8"?>
<svg id="_Слой_2" data-name="Слой 2" xmlns="http://www.w3.org/2000/svg" viewBox="0 0 539.4 122.26">
  <defs>
    <style>
      .cls-1 {
        fill: #0284c7;
      }

      .cls-2 {
        fill: gray;
      }
    </style>
  </defs>
  <g id="_Слой_1-2" data-name="Слой 1">
    <g>
      <path class="cls-2" d="M14.02,40.58c9.35-9.35,20.62-14.03,33.83-14.03s24.47,4.68,33.83,14.03c9.35,9.35,14.02,20.62,14.02,33.83,0,2.2-.15,4.35-.45,6.45H22.05c1.4,5.8,4.5,10.6,9.3,14.4s10.3,5.7,16.5,5.7,12.1-2.1,17.1-6.3h26.1c-3.9,8.3-9.73,14.98-17.48,20.02-7.75,5.05-16.33,7.58-25.73,7.58-13.2,0-24.48-4.67-33.83-14.03C4.67,98.88,0,87.6,0,74.4s4.67-24.47,14.02-33.83h0Zm8.93,24.39h49.65c-1.9-5.1-5.1-9.25-9.6-12.45s-9.55-4.8-15.15-4.8-10.68,1.6-15.23,4.8c-4.55,3.2-7.78,7.35-9.67,12.45Z"/>
      <path class="cls-2" d="M199.8,74.4c0,13.2-4.68,24.48-14.02,33.82-9.35,9.35-20.62,14.03-33.82,14.03s-24.48-4.67-33.83-14.03c-9.35-9.35-14.02-20.62-14.02-33.82s4.67-24.47,14.02-33.83c9.35-9.35,20.62-14.03,33.83-14.03,9.6,0,18.45,2.7,26.55,8.1V0h21.3V74.4h0Zm-66.6,18.75c5.2,5.2,11.45,7.8,18.75,7.8s13.55-2.6,18.75-7.8c5.2-5.2,7.8-11.45,7.8-18.75s-2.6-13.55-7.8-18.75-11.45-7.8-18.75-7.8-13.55,2.6-18.75,7.8-7.8,11.45-7.8,18.75,2.6,13.55,7.8,18.75Z"/>
      <path class="cls-1" d="M269.85,112.5c-6.8,6.5-14.8,9.75-24,9.75s-17.62-3.4-24.38-10.2c-6.75-6.8-10.13-14.95-10.13-24.45V26.55h21.3v61.05c0,3.7,1.28,6.85,3.83,9.45s5.67,3.9,9.38,3.9,6.85-1.3,9.45-3.9c2.6-2.6,3.9-5.75,3.9-9.45V26.55h21.3v61.05c0,3.7,1.27,6.85,3.83,9.45,2.55,2.6,5.67,3.9,9.38,3.9s6.85-1.3,9.45-3.9c2.6-2.6,3.9-5.75,3.9-9.45V26.55h21.3v61.2c0,9.5-3.4,17.62-10.2,24.38-6.8,6.75-14.95,10.12-24.45,10.12s-17.15-3.25-23.85-9.75h0Z"/>
      <path class="cls-1" d="M351.53,40.58c9.35-9.35,20.62-14.03,33.82-14.03s24.47,4.68,33.83,14.03c9.35,9.35,14.02,20.62,14.02,33.83,0,2.2-.15,4.35-.45,6.45h-73.2c1.4,5.8,4.5,10.6,9.3,14.4,4.8,3.8,10.3,5.7,16.5,5.7s12.1-2.1,17.1-6.3h26.1c-3.9,8.3-9.73,14.98-17.48,20.02-7.75,5.05-16.33,7.58-25.73,7.58-13.2,0-24.47-4.67-33.82-14.03-9.35-9.35-14.03-20.62-14.03-33.82s4.67-24.47,14.03-33.83h.01Zm8.92,24.38h49.65c-1.9-5.1-5.1-9.25-9.6-12.45s-9.55-4.8-15.15-4.8-10.68,1.6-15.22,4.8c-4.55,3.2-7.78,7.35-9.67,12.45h0Z"/>
      <path class="cls-1" d="M443.7,74.4V0h21.3V34.65c7.9-5.4,16.75-8.1,26.55-8.1,13.2,0,24.47,4.68,33.83,14.03,9.35,9.35,14.02,20.62,14.02,33.83s-4.68,24.48-14.02,33.82c-9.34,9.34-20.62,14.03-33.83,14.03s-24.47-4.67-33.82-14.03c-9.35-9.35-14.03-20.62-14.03-33.82h0Zm29.03,18.74c5.15,5.2,11.42,7.8,18.82,7.8s13.67-2.6,18.83-7.8c5.15-5.2,7.72-11.45,7.72-18.75s-2.58-13.55-7.72-18.75c-5.15-5.2-11.43-7.8-18.83-7.8s-13.68,2.6-18.82,7.8c-5.15,5.2-7.72,11.45-7.72,18.75s2.57,13.55,7.72,18.75h0Z"/>
    </g>
  </g>
</svg>